<?xml version="1.0" standalone="no"?>
<!DOCTYPE svg PUBLIC "-//W3C//DTD SVG 20010904//EN"
 "http://www.w3.org/TR/2001/REC-SVG-20010904/DTD/svg10.dtd">
<svg version="1.0" xmlns="http://www.w3.org/2000/svg"
 width="553.000000pt" height="216.000000pt" viewBox="0 0 553.000000 216.000000"
 preserveAspectRatio="xMidYMid meet">

<g transform="translate(0.000000,216.000000) scale(0.100000,-0.100000)"
fill="#7300f5" stroke="none">
<path d="M1964 1932 c-121 -119 -610 -597 -1087 -1061 -477 -464 -867 -845
-867 -847 0 -2 350 -4 778 -4 l778 0 607 601 607 601 568 -560 c312 -308 585
-579 607 -601 l39 -41 769 0 c726 0 768 1 765 17 -2 10 -491 489 -1088 1065
l-1084 1048 -585 0 -586 -1 -221 -217z"/>
</g>
</svg>
